<svg width="34" height="34" viewBox="0 0 30 34" fill="none" xmlns="http://www.w3.org/2000/svg">
<path d="M15.3621 5L24.5806 7.736C24.8377 7.81225 25.0624 7.96458 25.222 8.17075C25.3815 8.37691 25.4675 8.62613 25.4674 8.882V11H27.9937C28.3287 11 28.65 11.1264 28.8869 11.3515C29.1238 11.5765 29.2568 11.8817 29.2568 12.2V21.8C29.2568 22.1183 29.1238 22.4235 28.8869 22.6485C28.65 22.8736 28.3287 23 27.9937 23L23.9263 23.0012C23.4375 23.6132 22.8438 24.1532 22.1579 24.5972L15.3621 29L8.56631 24.5984C7.54634 23.9377 6.71168 23.0504 6.13491 22.0135C5.55813 20.9766 5.25671 19.8216 5.25684 18.6488V8.882C5.25699 8.62633 5.34309 8.37739 5.5026 8.17146C5.6621 7.96554 5.88667 7.81339 6.14357 7.7372L15.3621 5ZM15.3621 7.5128L7.78315 9.764V18.6488C7.78297 19.3835 7.96031 20.1084 8.30151 20.7677C8.6427 21.427 9.13865 22.0031 9.75115 22.4516L9.98989 22.6148L15.3621 26.0948L20.1394 23H14.0989C13.7639 23 13.4426 22.8736 13.2058 22.6485C12.9689 22.4235 12.8358 22.1183 12.8358 21.8V12.2C12.8358 11.8817 12.9689 11.5765 13.2058 11.3515C13.4426 11.1264 13.7639 11 14.0989 11H22.941V9.764L15.3621 7.5128ZM15.3621 17V20.6H26.7305V17H15.3621ZM15.3621 14.6H26.7305V13.4H15.3621V14.6Z" fill="black"/>
</svg>
